<svg xmlns="http://www.w3.org/2000/svg" viewBox="0 0 465.13 89.74"><defs><style>.cls-1{fill:#001e47;}.cls-2{fill:#ff7172;}.cls-3{fill:#6128ff;}.cls-4{fill:#ffc979;}</style></defs><title>Recurso 3</title><g id="Capa_2" data-name="Capa 2"><g id="Capa_1-2" data-name="Capa 1"><path class="cls-1" d="M135.07,21.43c13.25,0,23.16,10,23.16,23.34s-9.91,23.34-23.16,23.34-23.15-10-23.15-23.34S121.83,21.43,135.07,21.43Zm0,38.11c8.29,0,14.11-6.58,14.11-14.77S143.36,30,135.07,30,121,36.58,121,44.77,126.78,59.54,135.07,59.54Z"/><path class="cls-1" d="M230.44,46.67a.48.48,0,0,0-.47.51,14.44,14.44,0,0,0,14.44,13A16,16,0,0,0,257,54.44a.45.45,0,0,1,.64,0l5.27,5a.47.47,0,0,1,0,.63c-3.4,4.16-9.69,8-18.6,8-13.06,0-23.16-9.91-23.16-23.34S230.31,21.43,243,21.43c12.49,0,21.54,10.09,21.54,23.34a15.51,15.51,0,0,1-.1,1.9Zm.25-7.62h24.4a12.53,12.53,0,0,0-11.82-9.72A13,13,0,0,0,230.69,39.05Z"/><path class="cls-1" d="M189.69,21.43h-1a18.84,18.84,0,0,0-7.07,1.32A22.31,22.31,0,0,0,176,25.66a.45.45,0,0,1-.72-.36V22.83a.46.46,0,0,0-.46-.45H167a.46.46,0,0,0-.46.45V89.29a.46.46,0,0,0,.46.45h8.14a.45.45,0,0,0,.45-.45V64.44a.45.45,0,0,1,.71-.36,23.49,23.49,0,0,0,13.4,4c13.24,0,23.15-10,23.15-23.34S202.93,21.43,189.69,21.43Zm0,38.11c-8.29,0-14.1-6.57-14.11-14.76v0c0-8.19,5.82-14.76,14.11-14.76s14.1,6.57,14.1,14.77S198,59.54,189.69,59.54Z"/><path class="cls-1" d="M392.7,50.39,380.74,67a.45.45,0,0,1-.37.19h-9.64a.45.45,0,0,1-.37-.72L386.5,44a.71.71,0,0,0,0-.83L372,23.1a.45.45,0,0,1,.37-.72h9.55a.45.45,0,0,1,.36.18l10.44,14.3,10.44-14.3a.49.49,0,0,1,.37-.18h9.55a.45.45,0,0,1,.37.72L398.91,43.21a.71.71,0,0,0,0,.83l16.14,22.4a.45.45,0,0,1-.37.72H405a.44.44,0,0,1-.37-.19Z"/><path class="cls-1" d="M442,21.43c13.24,0,23.15,10,23.15,23.34S455.22,68.11,442,68.11s-23.15-10-23.15-23.34S428.73,21.43,442,21.43Zm0,38.11c8.29,0,14.1-6.58,14.1-14.77S450.27,30,442,30s-14.1,6.58-14.1,14.77S433.69,59.54,442,59.54Z"/><path class="cls-1" d="M331.76,46.67a.48.48,0,0,0-.47.51,14.44,14.44,0,0,0,14.44,13,16,16,0,0,0,12.56-5.77.45.45,0,0,1,.64,0l5.27,5a.47.47,0,0,1,0,.63c-3.4,4.16-9.69,8-18.6,8-13.06,0-23.15-9.91-23.15-23.34s9.14-23.34,21.81-23.34c12.49,0,21.54,10.09,21.54,23.34a15.51,15.51,0,0,1-.1,1.9Zm.25-7.62h24.4a12.53,12.53,0,0,0-11.82-9.72A13,13,0,0,0,332,39.05Z"/><path class="cls-1" d="M276.1,22.37h8.32a.46.46,0,0,1,.46.46V27a.44.44,0,0,0,.79.29,16.31,16.31,0,0,1,12.66-5.81c11.3,0,16,8.79,16.05,18.25V66.71a.45.45,0,0,1-.45.45H305.6a.46.46,0,0,1-.46-.45V41.16c0-6.64-3.27-11.08-9.41-11.08-6.64,0-10.85,3.81-10.85,11.93v24.7a.46.46,0,0,1-.46.45H276.1a.46.46,0,0,1-.46-.45V22.83A.46.46,0,0,1,276.1,22.37Z"/><path class="cls-2" d="M36.82,11.62A37.71,37.71,0,0,0,0,47.61a3.65,3.65,0,0,0,3.61,3.92h8a38.74,38.74,0,0,1,.53-6.25C14.56,30.93,25,22.74,37.62,22.74a23.63,23.63,0,0,1,11.52,3.05A20.6,20.6,0,0,1,59.45,44h0A14.92,14.92,0,0,1,45.51,59.46,20.55,20.55,0,0,0,63.75,49.14a23.64,23.64,0,0,0,3.06-11.52C66.81,22.92,55.76,11.25,36.82,11.62Z"/><path class="cls-1" d="M11.61,52.72a37.72,37.72,0,0,0,36,36.81,3.65,3.65,0,0,0,3.92-3.61v-8a38.15,38.15,0,0,1-6.25-.52C30.92,75,22.72,64.58,22.73,51.92A23.63,23.63,0,0,1,25.78,40.4,20.59,20.59,0,0,1,44,30.09h0A14.92,14.92,0,0,1,59.45,44,20.58,20.58,0,0,0,49.13,25.78a23.74,23.74,0,0,0-11.52-3.05C22.91,22.73,11.24,33.78,11.61,52.72Z"/><path class="cls-3" d="M52.67,77.91a37.7,37.7,0,0,0,36.81-36A3.65,3.65,0,0,0,85.87,38l-8,0a38.79,38.79,0,0,1-.53,6.26C74.93,58.61,64.53,66.8,51.87,66.8a23.63,23.63,0,0,1-11.52-3A20.6,20.6,0,0,1,30,45.56h0A14.9,14.9,0,0,1,44,30.09,20.52,20.52,0,0,0,25.74,40.4a23.6,23.6,0,0,0-3.06,11.51C22.68,66.61,33.73,78.29,52.67,77.91Z"/><path class="cls-4" d="M77.88,36.82A37.71,37.71,0,0,0,41.89,0,3.65,3.65,0,0,0,38,3.62v8a38.15,38.15,0,0,1,6.25.52C58.57,14.56,66.77,25,66.76,37.62a23.63,23.63,0,0,1-3.05,11.52A20.6,20.6,0,0,1,45.52,59.45h0A14.92,14.92,0,0,1,30,45.51,20.55,20.55,0,0,0,40.36,63.75a23.64,23.64,0,0,0,11.52,3.06C66.58,66.81,78.25,55.76,77.88,36.82Z"/></g></g></svg>